<svg width="259" height="42" viewBox="0 0 259 42" fill="none" xmlns="http://www.w3.org/2000/svg">
<path d="M18.4793 3.005C19.3227 3.005 19.946 3.225 20.3493 3.665C20.7893 4.105 21.0093 4.80166 21.0093 5.755V27.645C21.0093 31.3117 20.1293 34.63 18.3693 37.6C16.6093 40.5333 13.236 42 8.24934 42C7.22267 42 5.99434 41.89 4.56434 41.67C3.171 41.4133 2.181 41.1383 1.59434 40.845C0.861003 40.4783 0.494336 39.91 0.494336 39.14V35.455C0.494336 34.5017 0.677669 33.805 1.04434 33.365C1.44767 32.925 2.05267 32.705 2.85934 32.705C3.92267 32.705 4.711 32.98 5.22434 33.53C5.77434 34.08 6.04934 34.9967 6.04934 36.28V38.975C6.70934 39.085 7.47934 39.14 8.35934 39.14C10.816 39.14 12.5393 38.2967 13.5293 36.61C14.556 34.9233 15.0693 32.9067 15.0693 30.56V6.58C15.0693 5.29666 15.3443 4.38 15.8943 3.83C16.4443 3.28 17.306 3.005 18.4793 3.005ZM35.33 32.65C35.33 34.6667 35.7516 36.115 36.595 36.995C37.475 37.875 38.6116 38.315 40.005 38.315C41.0316 38.315 42.095 38.04 43.195 37.49C44.295 36.9033 45.1933 36.1333 45.89 35.18C46.6233 34.19 46.99 33.1267 46.99 31.99V18.35C46.99 16.7733 47.2466 15.7283 47.76 15.215C48.31 14.665 49.2266 14.39 50.51 14.39C51.3533 14.39 51.9216 14.61 52.215 15.05C52.545 15.4533 52.71 16.095 52.71 16.975V39.635C52.71 40.515 52.5266 41.1383 52.16 41.505C51.7933 41.835 51.1883 42 50.345 42C49.2816 42 48.475 41.6333 47.925 40.9C47.375 40.1667 47.1 38.9567 47.1 37.27V36.885H46.99C46.0366 38.425 44.735 39.6717 43.085 40.625C41.435 41.5417 39.5283 42 37.365 42C32.195 42 29.61 39.2317 29.61 33.695V16.975C29.61 16.095 29.7566 15.4533 30.05 15.05C30.38 14.61 30.9666 14.39 31.81 14.39C33.0566 14.39 33.955 14.7383 34.505 15.435C35.055 16.1317 35.33 17.2867 35.33 18.9V32.65ZM61.5143 16.755C61.5143 15.875 61.6976 15.27 62.0643 14.94C62.4309 14.5733 63.0359 14.39 63.8793 14.39C64.9059 14.39 65.6943 14.7933 66.2443 15.6C66.8309 16.37 67.1243 17.5433 67.1243 19.12V19.505H67.2343C68.1876 17.965 69.4893 16.7367 71.1393 15.82C72.7893 14.8667 74.6959 14.39 76.8593 14.39C82.0293 14.39 84.6143 17.1583 84.6143 22.695V39.415C84.6143 40.295 84.4493 40.955 84.1193 41.395C83.8259 41.7983 83.2576 42 82.4143 42C81.1676 42 80.2693 41.6517 79.7193 40.955C79.1693 40.2583 78.8943 39.1033 78.8943 37.49V23.74C78.8943 21.7233 78.4543 20.275 77.5743 19.395C76.7309 18.515 75.6126 18.075 74.2193 18.075C73.1926 18.075 72.1293 18.3683 71.0293 18.955C69.9293 19.505 69.0126 20.275 68.2793 21.265C67.5826 22.2183 67.2343 23.2633 67.2343 24.4V38.095C67.2343 39.6717 66.9593 40.7167 66.4093 41.23C65.8959 41.7433 64.9976 42 63.7143 42C62.8709 42 62.2843 41.7983 61.9543 41.395C61.6609 40.955 61.5143 40.295 61.5143 39.415V16.755ZM99.4136 38.26C99.4136 39.8 99.1569 40.8083 98.6436 41.285C98.1302 41.7617 97.2136 42 95.8936 42C95.0502 42 94.4636 41.7983 94.1336 41.395C93.8402 40.955 93.6936 40.295 93.6936 39.415V16.975C93.6936 16.095 93.8402 15.4533 94.1336 15.05C94.4636 14.61 95.0502 14.39 95.8936 14.39C97.1036 14.39 97.9836 14.7017 98.5336 15.325C99.1202 15.9117 99.4136 16.8283 99.4136 18.075V38.26ZM93.0336 7.405C93.0336 6.45167 93.3636 5.645 94.0236 4.985C94.6836 4.325 95.4902 3.995 96.4436 3.995C97.3602 3.995 98.1486 4.325 98.8086 4.985C99.5052 5.645 99.8536 6.45167 99.8536 7.405C99.8536 8.32167 99.5052 9.12833 98.8086 9.825C98.1486 10.485 97.3602 10.815 96.4436 10.815C95.4902 10.815 94.6836 10.485 94.0236 9.825C93.3636 9.12833 93.0336 8.32167 93.0336 7.405ZM119.456 42C115.46 42 112.361 40.845 110.161 38.535C107.961 36.225 106.861 32.7783 106.861 28.195C106.861 23.5383 107.98 20.0733 110.216 17.8C112.453 15.5267 115.533 14.39 119.456 14.39C123.38 14.39 126.46 15.5267 128.696 17.8C130.933 20.0733 132.051 23.5383 132.051 28.195C132.051 32.7783 130.951 36.225 128.751 38.535C126.551 40.845 123.453 42 119.456 42ZM119.456 39.8C121.62 39.8 123.27 38.975 124.406 37.325C125.543 35.6383 126.111 32.595 126.111 28.195C126.111 23.8683 125.525 20.8617 124.351 19.175C123.178 17.4517 121.546 16.59 119.456 16.59C117.403 16.59 115.771 17.4517 114.561 19.175C113.388 20.8983 112.801 23.905 112.801 28.195C112.801 32.5583 113.37 35.5833 114.506 37.27C115.643 38.9567 117.293 39.8 119.456 39.8ZM157 16.755C157 18.185 156.285 18.9 154.855 18.9H153.04C150.29 18.9 148.237 19.5783 146.88 20.935C145.56 22.2917 144.9 23.905 144.9 25.775V38.095C144.9 39.6717 144.625 40.7167 144.075 41.23C143.562 41.7433 142.664 42 141.38 42C140.537 42 139.95 41.7983 139.62 41.395C139.327 40.955 139.18 40.295 139.18 39.415V16.755C139.18 15.875 139.364 15.27 139.73 14.94C140.097 14.5733 140.702 14.39 141.545 14.39C142.572 14.39 143.36 14.7933 143.91 15.6C144.497 16.37 144.79 17.5433 144.79 19.12V20.495H144.9C145.964 18.8083 147.174 17.3783 148.53 16.205C149.887 14.995 151.629 14.39 153.755 14.39H154.415C155.332 14.39 155.974 14.5917 156.34 14.995C156.744 15.3983 156.964 15.985 157 16.755ZM192.879 3.005C193.722 3.005 194.345 3.225 194.749 3.665C195.189 4.105 195.409 4.80166 195.409 5.755V27.645C195.409 31.3117 194.529 34.63 192.769 37.6C191.009 40.5333 187.635 42 182.649 42C181.622 42 180.394 41.89 178.964 41.67C177.57 41.4133 176.58 41.1383 175.994 40.845C175.26 40.4783 174.894 39.91 174.894 39.14V35.455C174.894 34.5017 175.077 33.805 175.444 33.365C175.847 32.925 176.452 32.705 177.259 32.705C178.322 32.705 179.11 32.98 179.624 33.53C180.174 34.08 180.449 34.9967 180.449 36.28V38.975C181.109 39.085 181.879 39.14 182.759 39.14C185.215 39.14 186.939 38.2967 187.929 36.61C188.955 34.9233 189.469 32.9067 189.469 30.56V6.58C189.469 5.29666 189.744 4.38 190.294 3.83C190.844 3.28 191.705 3.005 192.879 3.005ZM214.954 42C210.958 42 207.859 40.845 205.659 38.535C203.459 36.225 202.359 32.7783 202.359 28.195C202.359 23.5383 203.478 20.0733 205.714 17.8C207.951 15.5267 211.031 14.39 214.954 14.39C218.878 14.39 221.958 15.5267 224.194 17.8C226.431 20.0733 227.549 23.5383 227.549 28.195C227.549 32.7783 226.449 36.225 224.249 38.535C222.049 40.845 218.951 42 214.954 42ZM214.954 39.8C217.118 39.8 218.768 38.975 219.904 37.325C221.041 35.6383 221.609 32.595 221.609 28.195C221.609 23.8683 221.023 20.8617 219.849 19.175C218.676 17.4517 217.044 16.59 214.954 16.59C212.901 16.59 211.269 17.4517 210.059 19.175C208.886 20.8983 208.299 23.905 208.299 28.195C208.299 32.5583 208.868 35.5833 210.004 37.27C211.141 38.9567 212.791 39.8 214.954 39.8ZM240.508 19.45C242.378 16.0767 245.238 14.39 249.088 14.39C251.912 14.39 254.185 15.2883 255.908 17.085C257.632 18.8817 258.493 22.1267 258.493 26.82C258.493 31.7333 257.338 35.4917 255.028 38.095C252.718 40.6983 249.51 42 245.403 42C242.873 42 240.508 41.5783 238.308 40.735C237.172 40.3317 236.273 39.7817 235.613 39.085C234.99 38.3883 234.678 37.3433 234.678 35.95V2.785C234.678 1.905 234.825 1.26333 235.118 0.859999C235.448 0.419998 236.035 0.199997 236.878 0.199997C238.125 0.199997 239.023 0.54833 239.573 1.245C240.123 1.94166 240.398 3.09666 240.398 4.71V19.45H240.508ZM240.343 36.885C240.343 37.6917 240.783 38.3883 241.663 38.975C242.58 39.525 243.827 39.8 245.403 39.8C250.17 39.8 252.553 35.62 252.553 27.26C252.553 23.7033 252.058 21.2833 251.068 20C250.078 18.7167 248.685 18.075 246.888 18.075C245.972 18.075 245 18.3867 243.973 19.01C242.947 19.5967 242.085 20.3667 241.388 21.32C240.692 22.2733 240.343 23.2633 240.343 24.29V36.885Z" fill="#2C1B47"/>
</svg>
