<svg width="184" height="50" viewBox="0 0 184 50" fill="none" xmlns="http://www.w3.org/2000/svg">
<path fill-rule="evenodd" clip-rule="evenodd" d="M20.2388 6.55829C20.9406 6.54808 21.6735 6.54702 22.0304 6.59164L21.9535 7.20676C21.6493 7.16873 20.9666 7.16767 20.2478 7.17813C19.9386 7.18263 19.6246 7.1892 19.3409 7.19513C18.9816 7.20265 18.6707 7.20916 18.4792 7.20916C8.64915 7.20916 0.68778 15.1705 0.68778 25.0005C0.68778 34.8305 8.64915 42.7919 18.4792 42.7919C18.6707 42.7919 18.9816 42.7984 19.341 42.8059C19.6247 42.8119 19.9386 42.8184 20.2478 42.8229C20.9666 42.8334 21.6493 42.8323 21.9535 42.7943L22.0304 43.4094C21.6735 43.454 20.9406 43.453 20.2388 43.4428C19.9171 43.4381 19.5991 43.4314 19.3155 43.4255C18.9648 43.4181 18.6667 43.4118 18.4792 43.4118C8.30678 43.4118 0.0678711 35.1729 0.0678711 25.0005C0.0678711 14.8282 8.30678 6.58925 18.4792 6.58925C18.6666 6.58925 18.9648 6.58298 19.3155 6.57561C19.5991 6.56965 19.9171 6.56296 20.2388 6.55829Z" fill="white"/>
<path fill-rule="evenodd" clip-rule="evenodd" d="M1.30762 19.4007H4.65512V20.2272H1.30762V19.4007Z" fill="white"/>
<path fill-rule="evenodd" clip-rule="evenodd" d="M0.377686 24.5873H3.8905V25.4138H0.377686V24.5873Z" fill="white"/>
<path fill-rule="evenodd" clip-rule="evenodd" d="M1.08032 29.7738H4.59314V30.6004H1.08032V29.7738Z" fill="white"/>
<path fill-rule="evenodd" clip-rule="evenodd" d="M3.20874 34.2992H6.72156V35.1257H3.20874V34.2992Z" fill="white"/>
<path fill-rule="evenodd" clip-rule="evenodd" d="M9.42871 40.147H12.9415V40.9735H9.42871V40.147Z" fill="white"/>
<path fill-rule="evenodd" clip-rule="evenodd" d="M5.97778 37.564H9.4906V38.3906H5.97778V37.564Z" fill="white"/>
<path fill-rule="evenodd" clip-rule="evenodd" d="M3.12598 14.8754H6.63879V15.7019H3.12598V14.8754Z" fill="white"/>
<path fill-rule="evenodd" clip-rule="evenodd" d="M9.34595 9.00688H12.8588V9.83343H9.34595V9.00688Z" fill="white"/>
<path fill-rule="evenodd" clip-rule="evenodd" d="M5.87451 11.6105H9.38733V12.4371H5.87451V11.6105Z" fill="white"/>
<path d="M21.9918 7.14716C31.8277 7.14716 39.8452 15.144 39.8452 25.0005C39.8452 34.8571 31.8484 42.8539 21.9918 42.8539C12.1353 42.8539 4.15913 34.8364 4.15913 25.0005C4.15913 15.1646 12.1559 7.14716 21.9918 7.14716ZM21.9918 6.52725C11.784 6.52725 3.51855 14.7927 3.51855 25.0005C3.51855 35.2084 11.784 43.4738 21.9918 43.4738C32.1997 43.4738 40.4651 35.2084 40.4651 25.0005C40.4651 14.7927 32.1997 6.52725 21.9918 6.52725Z" fill="white"/>
<path d="M21.9919 9.50281C30.5466 9.50281 37.4896 16.4458 37.4896 25.0005C37.4896 33.5553 30.5466 40.4982 21.9919 40.4982C13.4372 40.4982 6.49418 33.5553 6.49418 25.0005C6.49418 16.4458 13.4578 9.50281 21.9919 9.50281ZM21.9919 8.8829C13.0859 8.8829 5.87427 16.0945 5.87427 25.0005C5.87427 33.9066 13.0859 41.1182 21.9919 41.1182C30.8979 41.1182 38.1095 33.9066 38.1095 25.0005C38.1095 16.0945 30.8979 8.8829 21.9919 8.8829Z" fill="white"/>
<path fill-rule="evenodd" clip-rule="evenodd" d="M13.4788 14.1954L30.6709 15.2029V19.9909L25.0504 19.7842V25.3725H24.4305V19.1411L30.051 19.3478V15.7876L14.0987 14.8527V18.7917L20.4217 19.019V25.5171H19.8018V19.617L13.4788 19.3897V14.1954Z" fill="white"/>
<path fill-rule="evenodd" clip-rule="evenodd" d="M25.0708 24.05V27.5008C25.0708 30.911 22.129 33.7554 18.451 33.9063C15.0739 34.0566 12.1368 31.9254 11.4812 28.9098L11.4177 28.6179L17.012 27.1841V27.5835C17.012 28.256 17.6113 28.8407 18.4104 28.8234C19.2168 28.8058 19.8016 28.218 19.8016 27.5422V24.1327H20.4215V27.5422C20.4215 28.602 19.5184 29.4193 18.4238 29.4431C17.4605 29.4641 16.6287 28.8397 16.4347 27.972L12.1587 29.0679C12.8636 31.6051 15.4259 33.4206 18.4239 33.287L18.4251 33.2869C21.8138 33.1482 24.4509 30.5376 24.4509 27.5008V24.05H25.0708Z" fill="white"/>
<path d="M27.2405 28.0588V22.2523L32.7163 22.3556V18.2229L16.6194 17.541V22.0456L22.7565 22.149V28.2654" fill="white"/>
<path d="M22.7565 26.9016V30.2491C22.7565 31.0963 22.0333 31.8195 21.1241 31.8402C20.1942 31.8815 19.4503 31.1996 19.4503 30.3318L14.677 31.6336C15.2969 34.4438 17.9832 36.4069 21.1241 36.2209C24.5542 36.0143 27.2611 33.2867 27.2611 30.1251V26.7363" fill="white"/>
<path d="M48.0962 30.9C48.0962 32 48.3262 32.79 48.7862 33.27C49.2662 33.75 49.8862 33.99 50.6462 33.99C51.2062 33.99 51.7862 33.84 52.3862 33.54C52.9862 33.22 53.4762 32.8 53.8562 32.28C54.2562 31.74 54.4562 31.16 54.4562 30.54V23.1C54.4562 22.24 54.5962 21.67 54.8762 21.39C55.1762 21.09 55.6762 20.94 56.3762 20.94C56.8362 20.94 57.1462 21.06 57.3062 21.3C57.4862 21.52 57.5762 21.87 57.5762 22.35V34.71C57.5762 35.19 57.4762 35.53 57.2762 35.73C57.0762 35.91 56.7462 36 56.2862 36C55.7062 36 55.2662 35.8 54.9662 35.4C54.6662 35 54.5162 34.34 54.5162 33.42V33.21H54.4562C53.9362 34.05 53.2262 34.73 52.3262 35.25C51.4262 35.75 50.3862 36 49.2062 36C46.3862 36 44.9762 34.49 44.9762 31.47V22.35C44.9762 21.87 45.0562 21.52 45.2162 21.3C45.3962 21.06 45.7162 20.94 46.1762 20.94C46.8562 20.94 47.3462 21.13 47.6462 21.51C47.9462 21.89 48.0962 22.52 48.0962 23.4V30.9ZM62.3785 22.23C62.3785 21.75 62.4785 21.42 62.6785 21.24C62.8785 21.04 63.2085 20.94 63.6685 20.94C64.2285 20.94 64.6585 21.16 64.9585 21.6C65.2785 22.02 65.4385 22.66 65.4385 23.52V23.73H65.4985C66.0185 22.89 66.7285 22.22 67.6285 21.72C68.5285 21.2 69.5685 20.94 70.7485 20.94C73.5685 20.94 74.9785 22.45 74.9785 25.47V34.59C74.9785 35.07 74.8885 35.43 74.7085 35.67C74.5485 35.89 74.2385 36 73.7785 36C73.0985 36 72.6085 35.81 72.3085 35.43C72.0085 35.05 71.8585 34.42 71.8585 33.54V26.04C71.8585 24.94 71.6185 24.15 71.1385 23.67C70.6785 23.19 70.0685 22.95 69.3085 22.95C68.7485 22.95 68.1685 23.11 67.5685 23.43C66.9685 23.73 66.4685 24.15 66.0685 24.69C65.6885 25.21 65.4985 25.78 65.4985 26.4V33.87C65.4985 34.73 65.3485 35.3 65.0485 35.58C64.7685 35.86 64.2785 36 63.5785 36C63.1185 36 62.7985 35.89 62.6185 35.67C62.4585 35.43 62.3785 35.07 62.3785 34.59V22.23ZM83.0509 33.96C83.0509 34.8 82.9109 35.35 82.6309 35.61C82.3509 35.87 81.8509 36 81.1309 36C80.6709 36 80.3509 35.89 80.1709 35.67C80.0109 35.43 79.9309 35.07 79.9309 34.59V22.35C79.9309 21.87 80.0109 21.52 80.1709 21.3C80.3509 21.06 80.6709 20.94 81.1309 20.94C81.7909 20.94 82.2709 21.11 82.5709 21.45C82.8909 21.77 83.0509 22.27 83.0509 22.95V33.96ZM79.5709 17.13C79.5709 16.61 79.7509 16.17 80.1109 15.81C80.4709 15.45 80.9109 15.27 81.4309 15.27C81.9309 15.27 82.3609 15.45 82.7209 15.81C83.1009 16.17 83.2909 16.61 83.2909 17.13C83.2909 17.63 83.1009 18.07 82.7209 18.45C82.3609 18.81 81.9309 18.99 81.4309 18.99C80.9109 18.99 80.4709 18.81 80.1109 18.45C79.7509 18.07 79.5709 17.63 79.5709 17.13ZM93.9833 36C91.8033 36 90.1133 35.37 88.9133 34.11C87.7133 32.85 87.1133 30.97 87.1133 28.47C87.1133 25.93 87.7233 24.04 88.9433 22.8C90.1633 21.56 91.8433 20.94 93.9833 20.94C96.1233 20.94 97.8033 21.56 99.0233 22.8C100.243 24.04 100.853 25.93 100.853 28.47C100.853 30.97 100.253 32.85 99.0533 34.11C97.8533 35.37 96.1633 36 93.9833 36ZM93.9833 34.8C95.1633 34.8 96.0633 34.35 96.6833 33.45C97.3033 32.53 97.6133 30.87 97.6133 28.47C97.6133 26.11 97.2933 24.47 96.6533 23.55C96.0133 22.61 95.1233 22.14 93.9833 22.14C92.8633 22.14 91.9733 22.61 91.3133 23.55C90.6733 24.49 90.3533 26.13 90.3533 28.47C90.3533 30.85 90.6633 32.5 91.2833 33.42C91.9033 34.34 92.8033 34.8 93.9833 34.8ZM114.462 22.23C114.462 23.01 114.072 23.4 113.292 23.4H112.302C110.802 23.4 109.682 23.77 108.942 24.51C108.222 25.25 107.862 26.13 107.862 27.15V33.87C107.862 34.73 107.712 35.3 107.412 35.58C107.132 35.86 106.642 36 105.942 36C105.482 36 105.162 35.89 104.982 35.67C104.822 35.43 104.742 35.07 104.742 34.59V22.23C104.742 21.75 104.842 21.42 105.042 21.24C105.242 21.04 105.572 20.94 106.032 20.94C106.592 20.94 107.022 21.16 107.322 21.6C107.642 22.02 107.802 22.66 107.802 23.52V24.27H107.862C108.442 23.35 109.102 22.57 109.842 21.93C110.582 21.27 111.532 20.94 112.692 20.94H113.052C113.552 20.94 113.902 21.05 114.102 21.27C114.322 21.49 114.442 21.81 114.462 22.23ZM134.032 14.73C134.492 14.73 134.832 14.85 135.052 15.09C135.292 15.33 135.412 15.71 135.412 16.23V28.17C135.412 30.17 134.932 31.98 133.972 33.6C133.012 35.2 131.172 36 128.452 36C127.892 36 127.222 35.94 126.442 35.82C125.682 35.68 125.142 35.53 124.822 35.37C124.422 35.17 124.222 34.86 124.222 34.44V32.43C124.222 31.91 124.322 31.53 124.522 31.29C124.742 31.05 125.072 30.93 125.512 30.93C126.092 30.93 126.522 31.08 126.802 31.38C127.102 31.68 127.252 32.18 127.252 32.88V34.35C127.612 34.41 128.032 34.44 128.512 34.44C129.852 34.44 130.792 33.98 131.332 33.06C131.892 32.14 132.172 31.04 132.172 29.76V16.68C132.172 15.98 132.322 15.48 132.622 15.18C132.922 14.88 133.392 14.73 134.032 14.73ZM146.073 36C143.893 36 142.203 35.37 141.003 34.11C139.803 32.85 139.203 30.97 139.203 28.47C139.203 25.93 139.813 24.04 141.033 22.8C142.253 21.56 143.933 20.94 146.073 20.94C148.213 20.94 149.893 21.56 151.113 22.8C152.333 24.04 152.943 25.93 152.943 28.47C152.943 30.97 152.343 32.85 151.143 34.11C149.943 35.37 148.253 36 146.073 36ZM146.073 34.8C147.253 34.8 148.153 34.35 148.773 33.45C149.393 32.53 149.703 30.87 149.703 28.47C149.703 26.11 149.383 24.47 148.743 23.55C148.103 22.61 147.213 22.14 146.073 22.14C144.953 22.14 144.063 22.61 143.403 23.55C142.763 24.49 142.443 26.13 142.443 28.47C142.443 30.85 142.753 32.5 143.373 33.42C143.993 34.34 144.893 34.8 146.073 34.8ZM160.012 23.7C161.032 21.86 162.592 20.94 164.692 20.94C166.232 20.94 167.472 21.43 168.412 22.41C169.352 23.39 169.822 25.16 169.822 27.72C169.822 30.4 169.192 32.45 167.932 33.87C166.672 35.29 164.922 36 162.682 36C161.302 36 160.012 35.77 158.812 35.31C158.192 35.09 157.702 34.79 157.342 34.41C157.002 34.03 156.832 33.46 156.832 32.7V14.61C156.832 14.13 156.912 13.78 157.072 13.56C157.252 13.32 157.572 13.2 158.032 13.2C158.712 13.2 159.202 13.39 159.502 13.77C159.802 14.15 159.952 14.78 159.952 15.66V23.7H160.012ZM159.922 33.21C159.922 33.65 160.162 34.03 160.642 34.35C161.142 34.65 161.822 34.8 162.682 34.8C165.282 34.8 166.582 32.52 166.582 27.96C166.582 26.02 166.312 24.7 165.772 24C165.232 23.3 164.472 22.95 163.492 22.95C162.992 22.95 162.462 23.12 161.902 23.46C161.342 23.78 160.872 24.2 160.492 24.72C160.112 25.24 159.922 25.78 159.922 26.34V33.21Z" fill="white"/>
</svg>
