<svg width="187" height="51" viewBox="0 0 187 51" fill="none" xmlns="http://www.w3.org/2000/svg">
<path d="M24.9917 6.89916C24.3305 6.81651 22.1608 6.89916 21.4789 6.89916C11.4777 6.89916 3.37755 14.9993 3.37755 25.0005C3.37755 35.0017 11.4777 43.1018 21.4789 43.1018C22.1608 43.1018 24.3305 43.1845 24.9917 43.1018" fill="#C6C2D8"/>
<path fill-rule="evenodd" clip-rule="evenodd" d="M23.2386 6.5583C23.9404 6.54809 24.6732 6.54703 25.0302 6.59165L24.9533 7.20677C24.649 7.16874 23.9664 7.16768 23.2476 7.17814C22.9383 7.18264 22.6244 7.18921 22.3407 7.19514C21.9814 7.20266 21.6705 7.20917 21.4789 7.20917C11.6489 7.20917 3.68754 15.1705 3.68754 25.0005C3.68754 34.8306 11.6489 42.7919 21.4789 42.7919C21.6705 42.7919 21.9814 42.7984 22.3407 42.806C22.6244 42.8119 22.9383 42.8185 23.2476 42.823C23.9664 42.8334 24.649 42.8324 24.9533 42.7943L25.0302 43.4094C24.6732 43.4541 23.9404 43.453 23.2386 43.4428C22.9168 43.4381 22.5989 43.4314 22.3153 43.4255C21.9645 43.4181 21.6664 43.4118 21.4789 43.4118C11.3065 43.4118 3.06763 35.1729 3.06763 25.0005C3.06763 14.8282 11.3065 6.58926 21.4789 6.58926C21.6664 6.58926 21.9645 6.58299 22.3153 6.57562C22.5989 6.56966 22.9168 6.56297 23.2386 6.5583Z" fill="#545388"/>
<path fill-rule="evenodd" clip-rule="evenodd" d="M4.30743 19.4006H7.65494V20.2272H4.30743V19.4006Z" fill="#545388"/>
<path fill-rule="evenodd" clip-rule="evenodd" d="M3.37753 24.5872H6.89035V25.4137H3.37753V24.5872Z" fill="#545388"/>
<path fill-rule="evenodd" clip-rule="evenodd" d="M4.08012 29.7738H7.59294V30.6003H4.08012V29.7738Z" fill="#545388"/>
<path fill-rule="evenodd" clip-rule="evenodd" d="M6.20848 34.2991H9.7213V35.1256H6.20848V34.2991Z" fill="#545388"/>
<path fill-rule="evenodd" clip-rule="evenodd" d="M12.4282 40.147H15.9411V40.9735H12.4282V40.147Z" fill="#545388"/>
<path fill-rule="evenodd" clip-rule="evenodd" d="M8.97745 37.564H12.4903V38.3905H8.97745V37.564Z" fill="#545388"/>
<path fill-rule="evenodd" clip-rule="evenodd" d="M6.12589 14.8754H9.6387V15.7019H6.12589V14.8754Z" fill="#545388"/>
<path fill-rule="evenodd" clip-rule="evenodd" d="M12.3456 9.00684H15.8584V9.83338H12.3456V9.00684Z" fill="#545388"/>
<path fill-rule="evenodd" clip-rule="evenodd" d="M8.87408 11.6105H12.3869V12.437H8.87408V11.6105Z" fill="#545388"/>
<path d="M40.4515 34.5485C45.725 26.0148 43.0821 14.8219 34.5485 9.54846C26.0148 4.27499 14.8219 6.91789 9.54846 15.4515C4.27499 23.9852 6.91789 35.1781 15.4515 40.4515C23.9852 45.725 35.1781 43.0821 40.4515 34.5485Z" fill="white"/>
<path d="M24.9917 7.14713C34.8276 7.14713 42.8451 15.144 42.8451 25.0005C42.8451 34.8571 34.8482 42.8539 24.9917 42.8539C15.1351 42.8539 7.15899 34.8364 7.15899 25.0005C7.15899 15.1646 15.1558 7.14713 24.9917 7.14713ZM24.9917 6.52722C14.7839 6.52722 6.51842 14.7927 6.51842 25.0005C6.51842 35.2083 14.7839 43.4738 24.9917 43.4738C35.1995 43.4738 43.465 35.2083 43.465 25.0005C43.465 14.7927 35.1995 6.52722 24.9917 6.52722Z" fill="#545388"/>
<path d="M24.9917 9.50284C33.5465 9.50284 40.4894 16.4458 40.4894 25.0006C40.4894 33.5553 33.5465 40.4983 24.9917 40.4983C16.437 40.4983 9.49401 33.5553 9.49401 25.0006C9.49401 16.4458 16.4576 9.50284 24.9917 9.50284ZM24.9917 8.88293C16.0857 8.88293 8.8741 16.0945 8.8741 25.0006C8.8741 33.9066 16.0857 41.1182 24.9917 41.1182C33.8977 41.1182 41.1094 33.9066 41.1094 25.0006C41.1094 16.0945 33.8977 8.88293 24.9917 8.88293Z" fill="#545388"/>
<path fill-rule="evenodd" clip-rule="evenodd" d="M16.4783 14.1954L33.6704 15.203V19.9909L28.0499 19.7843V25.3725H27.43V19.1411L33.0505 19.3478V15.7876L17.0982 14.8527V18.7917L23.4212 19.019V25.5171H22.8013V19.6171L16.4783 19.3898V14.1954Z" fill="#545388"/>
<path fill-rule="evenodd" clip-rule="evenodd" d="M28.0706 24.05V27.5009C28.0706 30.911 25.1289 33.7554 21.4509 33.9063C18.0737 34.0567 15.1366 31.9255 14.481 28.9099L14.4176 28.6179L20.0118 27.1841V27.5835C20.0118 28.256 20.6111 28.8408 21.4102 28.8234C22.2167 28.8059 22.8014 28.2181 22.8014 27.5422V24.1327H23.4213V27.5422C23.4213 28.6021 22.5183 29.4194 21.4237 29.4432C20.4603 29.4641 19.6285 28.8398 19.4345 27.972L15.1585 29.068C15.8635 31.6051 18.4258 33.4207 21.4238 33.287L21.4249 33.2869C24.8136 33.1482 27.4507 30.5376 27.4507 27.5009V24.05H28.0706Z" fill="#545388"/>
<path d="M30.2402 28.0588V22.2523L35.7161 22.3556V18.2229L19.6191 17.541V22.0457L25.7562 22.149V28.2654" fill="#545388"/>
<path d="M25.7563 26.9016V30.2491C25.7563 31.0964 25.0331 31.8196 24.1239 31.8402C23.194 31.8816 22.4501 31.1997 22.4501 30.3318L17.6768 31.6336C18.2967 34.4439 20.983 36.4069 24.1239 36.2209C27.554 36.0143 30.261 33.2867 30.261 30.1252V26.7363" fill="#545388"/>
<path d="M51.0962 31.9C51.0962 33 51.3262 33.79 51.7862 34.27C52.2662 34.75 52.8862 34.99 53.6462 34.99C54.2062 34.99 54.7862 34.84 55.3862 34.54C55.9862 34.22 56.4762 33.8 56.8562 33.28C57.2562 32.74 57.4562 32.16 57.4562 31.54V24.1C57.4562 23.24 57.5962 22.67 57.8762 22.39C58.1762 22.09 58.6762 21.94 59.3762 21.94C59.8362 21.94 60.1462 22.06 60.3062 22.3C60.4862 22.52 60.5762 22.87 60.5762 23.35V35.71C60.5762 36.19 60.4762 36.53 60.2762 36.73C60.0762 36.91 59.7462 37 59.2862 37C58.7062 37 58.2662 36.8 57.9662 36.4C57.6662 36 57.5162 35.34 57.5162 34.42V34.21H57.4562C56.9362 35.05 56.2262 35.73 55.3262 36.25C54.4262 36.75 53.3862 37 52.2062 37C49.3862 37 47.9762 35.49 47.9762 32.47V23.35C47.9762 22.87 48.0562 22.52 48.2162 22.3C48.3962 22.06 48.7162 21.94 49.1762 21.94C49.8562 21.94 50.3462 22.13 50.6462 22.51C50.9462 22.89 51.0962 23.52 51.0962 24.4V31.9ZM65.3785 23.23C65.3785 22.75 65.4785 22.42 65.6785 22.24C65.8785 22.04 66.2085 21.94 66.6685 21.94C67.2285 21.94 67.6585 22.16 67.9585 22.6C68.2785 23.02 68.4385 23.66 68.4385 24.52V24.73H68.4985C69.0185 23.89 69.7285 23.22 70.6285 22.72C71.5285 22.2 72.5685 21.94 73.7485 21.94C76.5685 21.94 77.9785 23.45 77.9785 26.47V35.59C77.9785 36.07 77.8885 36.43 77.7085 36.67C77.5485 36.89 77.2385 37 76.7785 37C76.0985 37 75.6085 36.81 75.3085 36.43C75.0085 36.05 74.8585 35.42 74.8585 34.54V27.04C74.8585 25.94 74.6185 25.15 74.1385 24.67C73.6785 24.19 73.0685 23.95 72.3085 23.95C71.7485 23.95 71.1685 24.11 70.5685 24.43C69.9685 24.73 69.4685 25.15 69.0685 25.69C68.6885 26.21 68.4985 26.78 68.4985 27.4V34.87C68.4985 35.73 68.3485 36.3 68.0485 36.58C67.7685 36.86 67.2785 37 66.5785 37C66.1185 37 65.7985 36.89 65.6185 36.67C65.4585 36.43 65.3785 36.07 65.3785 35.59V23.23ZM86.0509 34.96C86.0509 35.8 85.9109 36.35 85.6309 36.61C85.3509 36.87 84.8509 37 84.1309 37C83.6709 37 83.3509 36.89 83.1709 36.67C83.0109 36.43 82.9309 36.07 82.9309 35.59V23.35C82.9309 22.87 83.0109 22.52 83.1709 22.3C83.3509 22.06 83.6709 21.94 84.1309 21.94C84.7909 21.94 85.2709 22.11 85.5709 22.45C85.8909 22.77 86.0509 23.27 86.0509 23.95V34.96ZM82.5709 18.13C82.5709 17.61 82.7509 17.17 83.1109 16.81C83.4709 16.45 83.9109 16.27 84.4309 16.27C84.9309 16.27 85.3609 16.45 85.7209 16.81C86.1009 17.17 86.2909 17.61 86.2909 18.13C86.2909 18.63 86.1009 19.07 85.7209 19.45C85.3609 19.81 84.9309 19.99 84.4309 19.99C83.9109 19.99 83.4709 19.81 83.1109 19.45C82.7509 19.07 82.5709 18.63 82.5709 18.13ZM96.9833 37C94.8033 37 93.1133 36.37 91.9133 35.11C90.7133 33.85 90.1133 31.97 90.1133 29.47C90.1133 26.93 90.7233 25.04 91.9433 23.8C93.1633 22.56 94.8433 21.94 96.9833 21.94C99.1233 21.94 100.803 22.56 102.023 23.8C103.243 25.04 103.853 26.93 103.853 29.47C103.853 31.97 103.253 33.85 102.053 35.11C100.853 36.37 99.1633 37 96.9833 37ZM96.9833 35.8C98.1633 35.8 99.0633 35.35 99.6833 34.45C100.303 33.53 100.613 31.87 100.613 29.47C100.613 27.11 100.293 25.47 99.6533 24.55C99.0133 23.61 98.1233 23.14 96.9833 23.14C95.8633 23.14 94.9733 23.61 94.3133 24.55C93.6733 25.49 93.3533 27.13 93.3533 29.47C93.3533 31.85 93.6633 33.5 94.2833 34.42C94.9033 35.34 95.8033 35.8 96.9833 35.8ZM117.462 23.23C117.462 24.01 117.072 24.4 116.292 24.4H115.302C113.802 24.4 112.682 24.77 111.942 25.51C111.222 26.25 110.862 27.13 110.862 28.15V34.87C110.862 35.73 110.712 36.3 110.412 36.58C110.132 36.86 109.642 37 108.942 37C108.482 37 108.162 36.89 107.982 36.67C107.822 36.43 107.742 36.07 107.742 35.59V23.23C107.742 22.75 107.842 22.42 108.042 22.24C108.242 22.04 108.572 21.94 109.032 21.94C109.592 21.94 110.022 22.16 110.322 22.6C110.642 23.02 110.802 23.66 110.802 24.52V25.27H110.862C111.442 24.35 112.102 23.57 112.842 22.93C113.582 22.27 114.532 21.94 115.692 21.94H116.052C116.552 21.94 116.902 22.05 117.102 22.27C117.322 22.49 117.442 22.81 117.462 23.23ZM137.032 15.73C137.492 15.73 137.832 15.85 138.052 16.09C138.292 16.33 138.412 16.71 138.412 17.23V29.17C138.412 31.17 137.932 32.98 136.972 34.6C136.012 36.2 134.172 37 131.452 37C130.892 37 130.222 36.94 129.442 36.82C128.682 36.68 128.142 36.53 127.822 36.37C127.422 36.17 127.222 35.86 127.222 35.44V33.43C127.222 32.91 127.322 32.53 127.522 32.29C127.742 32.05 128.072 31.93 128.512 31.93C129.092 31.93 129.522 32.08 129.802 32.38C130.102 32.68 130.252 33.18 130.252 33.88V35.35C130.612 35.41 131.032 35.44 131.512 35.44C132.852 35.44 133.792 34.98 134.332 34.06C134.892 33.14 135.172 32.04 135.172 30.76V17.68C135.172 16.98 135.322 16.48 135.622 16.18C135.922 15.88 136.392 15.73 137.032 15.73ZM149.073 37C146.893 37 145.203 36.37 144.003 35.11C142.803 33.85 142.203 31.97 142.203 29.47C142.203 26.93 142.813 25.04 144.033 23.8C145.253 22.56 146.933 21.94 149.073 21.94C151.213 21.94 152.893 22.56 154.113 23.8C155.333 25.04 155.943 26.93 155.943 29.47C155.943 31.97 155.343 33.85 154.143 35.11C152.943 36.37 151.253 37 149.073 37ZM149.073 35.8C150.253 35.8 151.153 35.35 151.773 34.45C152.393 33.53 152.703 31.87 152.703 29.47C152.703 27.11 152.383 25.47 151.743 24.55C151.103 23.61 150.213 23.14 149.073 23.14C147.953 23.14 147.063 23.61 146.403 24.55C145.763 25.49 145.443 27.13 145.443 29.47C145.443 31.85 145.753 33.5 146.373 34.42C146.993 35.34 147.893 35.8 149.073 35.8ZM163.012 24.7C164.032 22.86 165.592 21.94 167.692 21.94C169.232 21.94 170.472 22.43 171.412 23.41C172.352 24.39 172.822 26.16 172.822 28.72C172.822 31.4 172.192 33.45 170.932 34.87C169.672 36.29 167.922 37 165.682 37C164.302 37 163.012 36.77 161.812 36.31C161.192 36.09 160.702 35.79 160.342 35.41C160.002 35.03 159.832 34.46 159.832 33.7V15.61C159.832 15.13 159.912 14.78 160.072 14.56C160.252 14.32 160.572 14.2 161.032 14.2C161.712 14.2 162.202 14.39 162.502 14.77C162.802 15.15 162.952 15.78 162.952 16.66V24.7H163.012ZM162.922 34.21C162.922 34.65 163.162 35.03 163.642 35.35C164.142 35.65 164.822 35.8 165.682 35.8C168.282 35.8 169.582 33.52 169.582 28.96C169.582 27.02 169.312 25.7 168.772 25C168.232 24.3 167.472 23.95 166.492 23.95C165.992 23.95 165.462 24.12 164.902 24.46C164.342 24.78 163.872 25.2 163.492 25.72C163.112 26.24 162.922 26.78 162.922 27.34V34.21Z" fill="#604D9E"/>
</svg>
