<svg width="45" height="45" viewBox="0 0 45 45" fill="none" xmlns="http://www.w3.org/2000/svg">
<mask id="mask0_1035_1302" style="mask-type:alpha" maskUnits="userSpaceOnUse" x="0" y="0" width="45" height="45">
<rect width="45" height="45" fill="#D9D9D9"/>
</mask>
<g mask="url(#mask0_1035_1302)">
<path d="M10.9689 32.0625C12.5626 30.8438 14.3439 29.8825 16.3126 29.1788C18.2814 28.4763 20.3439 28.125 22.5001 28.125C24.6564 28.125 26.7189 28.4763 28.6876 29.1788C30.6564 29.8825 32.4376 30.8438 34.0314 32.0625C35.1251 30.7812 35.977 29.3281 36.587 27.7031C37.1957 26.0781 37.5001 24.3438 37.5001 22.5C37.5001 18.3438 36.0395 14.8044 33.1182 11.8819C30.1957 8.96063 26.6564 7.5 22.5001 7.5C18.3439 7.5 14.8051 8.96063 11.8839 11.8819C8.96137 14.8044 7.50012 18.3438 7.50012 22.5C7.50012 24.3438 7.80512 26.0781 8.41512 27.7031C9.02387 29.3281 9.87512 30.7812 10.9689 32.0625ZM22.5001 24.375C20.6564 24.375 19.1014 23.7425 17.8351 22.4775C16.5701 21.2112 15.9376 19.6562 15.9376 17.8125C15.9376 15.9688 16.5701 14.4138 17.8351 13.1475C19.1014 11.8825 20.6564 11.25 22.5001 11.25C24.3439 11.25 25.8989 11.8825 27.1651 13.1475C28.4301 14.4138 29.0626 15.9688 29.0626 17.8125C29.0626 19.6562 28.4301 21.2112 27.1651 22.4775C25.8989 23.7425 24.3439 24.375 22.5001 24.375ZM22.5001 41.25C19.9064 41.25 17.4689 40.7575 15.1876 39.7725C12.9064 38.7887 10.922 37.4531 9.2345 35.7656C7.547 34.0781 6.21137 32.0938 5.22762 29.8125C4.24262 27.5312 3.75012 25.0938 3.75012 22.5C3.75012 19.9062 4.24262 17.4688 5.22762 15.1875C6.21137 12.9063 7.547 10.9219 9.2345 9.23438C10.922 7.54688 12.9064 6.21062 15.1876 5.22562C17.4689 4.24187 19.9064 3.75 22.5001 3.75C25.0939 3.75 27.5314 4.24187 29.8126 5.22562C32.0939 6.21062 34.0782 7.54688 35.7657 9.23438C37.4532 10.9219 38.7889 12.9063 39.7726 15.1875C40.7576 17.4688 41.2501 19.9062 41.2501 22.5C41.2501 25.0938 40.7576 27.5312 39.7726 29.8125C38.7889 32.0938 37.4532 34.0781 35.7657 35.7656C34.0782 37.4531 32.0939 38.7887 29.8126 39.7725C27.5314 40.7575 25.0939 41.25 22.5001 41.25Z" fill="#604D9E"/>
</g>
</svg>
