<svg width="20" height="20" viewBox="0 0 20 20" fill="none" xmlns="http://www.w3.org/2000/svg">
<mask id="mask0_2302_399" style="mask-type:alpha" maskUnits="userSpaceOnUse" x="0" y="0" width="20" height="20">
<rect width="20" height="20" fill="#D9D9D9"/>
</mask>
<g mask="url(#mask0_2302_399)">
<path d="M3.33329 16.6666C2.87496 16.6666 2.4826 16.5034 2.15621 16.177C1.82982 15.8506 1.66663 15.4583 1.66663 14.9999V4.99992C1.66663 4.54159 1.82982 4.14922 2.15621 3.82284C2.4826 3.49645 2.87496 3.33325 3.33329 3.33325H16.6666C17.125 3.33325 17.5173 3.49645 17.8437 3.82284C18.1701 4.14922 18.3333 4.54159 18.3333 4.99992V9.99992H3.33329V14.9999H11.6666V16.6666H3.33329ZM3.33329 6.66659H16.6666V4.99992H3.33329V6.66659ZM15.8333 18.3333V15.8333H13.3333V14.1666H15.8333V11.6666H17.5V14.1666H20V15.8333H17.5V18.3333H15.8333Z" fill="#604D9E"/>
</g>
</svg>
