<svg width="30" height="30" viewBox="0 0 30 30" fill="none" xmlns="http://www.w3.org/2000/svg">
<mask id="mask0_1035_1319" style="mask-type:alpha" maskUnits="userSpaceOnUse" x="0" y="0" width="30" height="30">
<rect width="30" height="30" transform="matrix(-1 0 0 1 30 0)" fill="#D9D9D9"/>
</mask>
<g mask="url(#mask0_1035_1319)">
<path d="M27.4999 27.5V5C27.4999 4.3125 27.2551 3.72396 26.7656 3.23438C26.276 2.74479 25.6874 2.5 24.9999 2.5H4.99994C4.31244 2.5 3.72389 2.74479 3.23431 3.23438C2.74473 3.72396 2.49994 4.3125 2.49994 5V20C2.49994 20.6875 2.74473 21.276 3.23431 21.7656C3.72389 22.2552 4.31244 22.5 4.99994 22.5H22.4999L27.4999 27.5ZM24.9999 21.4688L23.5312 20H4.99994V5H24.9999V21.4688Z" fill="#604D9E"/>
</g>
</svg>
