<svg width="24" height="24" viewBox="0 0 24 24" fill="none" xmlns="http://www.w3.org/2000/svg">
<mask id="mask0_2302_363" style="mask-type:alpha" maskUnits="userSpaceOnUse" x="0" y="0" width="24" height="24">
<rect width="24" height="24" fill="#D9D9D9"/>
</mask>
<g mask="url(#mask0_2302_363)">
<path d="M11 20C10.7167 20 10.4794 19.904 10.288 19.712C10.096 19.5207 10 19.2833 10 19V13L4.20003 5.6C3.95003 5.26667 3.9127 4.91667 4.08803 4.55C4.2627 4.18333 4.5667 4 5.00003 4H19C19.4334 4 19.7377 4.18333 19.913 4.55C20.0877 4.91667 20.05 5.26667 19.8 5.6L14 13V19C14 19.2833 13.9044 19.5207 13.713 19.712C13.521 19.904 13.2834 20 13 20H11ZM12 12.3L16.95 6H7.05003L12 12.3Z" fill="#2C1B47"/>
</g>
</svg>
