<svg width="20" height="20" viewBox="0 0 20 20" fill="none" xmlns="http://www.w3.org/2000/svg">
<mask id="mask0_2302_408" style="mask-type:alpha" maskUnits="userSpaceOnUse" x="0" y="0" width="20" height="20">
<rect width="20" height="20" fill="#D9D9D9"/>
</mask>
<g mask="url(#mask0_2302_408)">
<path d="M5.06246 18.5C4.53468 18.5 4.0869 18.3161 3.71913 17.9483C3.35079 17.58 3.16663 17.1319 3.16663 16.6042V3.39583C3.16663 2.86806 3.35079 2.42 3.71913 2.05167C4.0869 1.68389 4.53468 1.5 5.06246 1.5H11.7291L16.8333 6.60417V16.6042C16.8333 17.1319 16.6494 17.58 16.2816 17.9483C15.9133 18.3161 15.4652 18.5 14.9375 18.5H5.06246ZM10.7708 7.5625V3.39583H5.06246V16.6042H14.9375V7.5625H10.7708Z" fill="#604D9E"/>
</g>
</svg>
