<svg width="30" height="30" viewBox="0 0 30 30" fill="none" xmlns="http://www.w3.org/2000/svg">
<mask id="mask0_1035_1316" style="mask-type:alpha" maskUnits="userSpaceOnUse" x="0" y="0" width="30" height="30">
<rect width="30" height="30" fill="#D9D9D9"/>
</mask>
<g mask="url(#mask0_1035_1316)">
<path d="M4.56238 23.9688V21.125H7.15613V12.6562C7.15613 10.8646 7.69279 9.26542 8.76613 7.85875C9.83863 6.45292 11.229 5.53125 12.9374 5.09375V4.25C12.9374 3.6875 13.1407 3.20833 13.5474 2.8125C13.9532 2.41667 14.4374 2.21875 14.9999 2.21875C15.5624 2.21875 16.047 2.41667 16.4536 2.8125C16.8595 3.20833 17.0624 3.6875 17.0624 4.25V5.09375C18.7915 5.53125 20.1874 6.44792 21.2499 7.84375C22.3124 9.23958 22.8436 10.8438 22.8436 12.6562V21.125H25.4374V23.9688H4.56238ZM14.9999 27.75C14.2915 27.75 13.6824 27.5 13.1724 27C12.6615 26.5 12.4061 25.8958 12.4061 25.1875H17.5936C17.5936 25.8958 17.3386 26.5 16.8286 27C16.3178 27.5 15.7082 27.75 14.9999 27.75ZM9.99988 21.125H19.9999V12.6562C19.9999 11.2812 19.5103 10.1042 18.5311 9.125C17.552 8.14583 16.3749 7.65625 14.9999 7.65625C13.6249 7.65625 12.4478 8.14583 11.4686 9.125C10.4895 10.1042 9.99988 11.2812 9.99988 12.6562V21.125Z" fill="#604D9E"/>
</g>
</svg>
