<svg width="99" height="99" viewBox="0 0 99 99" fill="none" xmlns="http://www.w3.org/2000/svg">
<g id="Group 30">
<circle id="Ellipse 7" cx="49.5" cy="49.5" r="49.5" fill="#D9D9D9"/>
<g id="add_a_photo">
<mask id="mask0_977_1324" style="mask-type:alpha" maskUnits="userSpaceOnUse" x="30" y="25" width="43" height="43">
<rect id="Bounding box" x="30" y="25" width="43" height="43" fill="#D9D9D9"/>
</mask>
<g mask="url(#mask0_977_1324)">
<path id="add_a_photo_2" d="M64.0416 39.3334V35.75H60.4583V32.1667H64.0416V28.5834H67.625V32.1667H71.2083V35.75H67.625V39.3334H64.0416ZM35.375 64.4167C34.3895 64.4167 33.5463 64.0661 32.8451 63.365C32.1428 62.6627 31.7916 61.8188 31.7916 60.8334V39.3334C31.7916 38.348 32.1428 37.5047 32.8451 36.8035C33.5463 36.1012 34.3895 35.75 35.375 35.75H41.0187L44.3333 32.1667H55.0833V35.75H45.901L42.6312 39.3334H35.375V60.8334H64.0416V44.7084H67.625V60.8334C67.625 61.8188 67.2744 62.6627 66.5733 63.365C65.8709 64.0661 65.027 64.4167 64.0416 64.4167H35.375ZM49.7083 58.1459C51.9479 58.1459 53.8518 57.3623 55.4201 55.7952C56.9872 54.2269 57.7708 52.323 57.7708 50.0834C57.7708 47.8438 56.9872 45.9398 55.4201 44.3715C53.8518 42.8044 51.9479 42.0209 49.7083 42.0209C47.4687 42.0209 45.5648 42.8044 43.9965 44.3715C42.4293 45.9398 41.6458 47.8438 41.6458 50.0834C41.6458 52.323 42.4293 54.2269 43.9965 55.7952C45.5648 57.3623 47.4687 58.1459 49.7083 58.1459ZM49.7083 54.5625C48.4541 54.5625 47.3941 54.1296 46.5281 53.2636C45.6621 52.3976 45.2291 51.3375 45.2291 50.0834C45.2291 48.8292 45.6621 47.7691 46.5281 46.9032C47.3941 46.0372 48.4541 45.6042 49.7083 45.6042C50.9625 45.6042 52.0225 46.0372 52.8885 46.9032C53.7545 47.7691 54.1875 48.8292 54.1875 50.0834C54.1875 51.3375 53.7545 52.3976 52.8885 53.2636C52.0225 54.1296 50.9625 54.5625 49.7083 54.5625Z" fill="#2C1B47"/>
</g>
</g>
</g>
</svg>
