<svg width="25" height="24" viewBox="0 0 25 24" fill="none" xmlns="http://www.w3.org/2000/svg">
<mask id="mask0_2302_376" style="mask-type:alpha" maskUnits="userSpaceOnUse" x="0" y="0" width="25" height="24">
<rect x="0.828003" width="24.1146" height="24" fill="#D9D9D9"/>
</mask>
<g mask="url(#mask0_2302_376)">
<path d="M20.5216 21L14.1916 14.7C13.6892 15.1 13.1114 15.4167 12.4583 15.65C11.8052 15.8833 11.1102 16 10.3734 16C8.54805 16 7.00337 15.371 5.73937 14.113C4.47469 12.8543 3.84235 11.3167 3.84235 9.5C3.84235 7.68333 4.47469 6.14567 5.73937 4.887C7.00337 3.629 8.54805 3 10.3734 3C12.1987 3 13.7438 3.629 15.0084 4.887C16.2724 6.14567 16.9044 7.68333 16.9044 9.5C16.9044 10.2333 16.7872 10.925 16.5528 11.575C16.3183 12.225 16.0001 12.8 15.5982 13.3L21.9283 19.6L20.5216 21ZM10.3734 14C11.6294 14 12.6971 13.5627 13.5766 12.688C14.4555 11.8127 14.8949 10.75 14.8949 9.5C14.8949 8.25 14.4555 7.18733 13.5766 6.312C12.6971 5.43733 11.6294 5 10.3734 5C9.11743 5 8.04968 5.43733 7.17017 6.312C6.29132 7.18733 5.8519 8.25 5.8519 9.5C5.8519 10.75 6.29132 11.8127 7.17017 12.688C8.04968 13.5627 9.11743 14 10.3734 14Z" fill="#604D9E"/>
</g>
</svg>
