<svg width="20" height="20" viewBox="0 0 20 20" fill="none" xmlns="http://www.w3.org/2000/svg">
<mask id="mask0_2308_413" style="mask-type:alpha" maskUnits="userSpaceOnUse" x="0" y="0" width="20" height="20">
<rect width="20" height="20" fill="#D9D9D9"/>
</mask>
<g mask="url(#mask0_2308_413)">
<path d="M7.56254 18.5L7.22921 15.7917C7.06254 15.7222 6.9131 15.6458 6.78087 15.5625C6.64921 15.4792 6.51393 15.3889 6.37504 15.2917L3.85421 16.375L1.39587 12.1458L3.58337 10.4792V9.52083L1.39587 7.85417L3.85421 3.64583L6.39587 4.70833C6.52087 4.61111 6.65282 4.52083 6.79171 4.4375C6.9306 4.35417 7.07643 4.28472 7.22921 4.22917L7.56254 1.5H12.4375L12.7709 4.22917C12.9375 4.28472 13.087 4.35417 13.2192 4.4375C13.3509 4.52083 13.4862 4.61111 13.625 4.70833L16.1459 3.64583L18.6042 7.85417L16.3959 9.52083C16.4098 9.60417 16.4167 9.68389 16.4167 9.76V10.2392C16.4167 10.3158 16.4028 10.3958 16.375 10.4792L18.5834 12.1458L16.125 16.375L13.6042 15.2917C13.4792 15.3889 13.3473 15.4792 13.2084 15.5625C13.0695 15.6458 12.9237 15.7222 12.7709 15.7917L12.4375 18.5H7.56254ZM10.0209 12.9167C10.8264 12.9167 11.5139 12.6319 12.0834 12.0625C12.6528 11.4931 12.9375 10.8056 12.9375 10C12.9375 9.19444 12.6528 8.50694 12.0834 7.9375C11.5139 7.36806 10.8264 7.08333 10.0209 7.08333C9.21532 7.08333 8.52782 7.36806 7.95837 7.9375C7.38893 8.50694 7.10421 9.19444 7.10421 10C7.10421 10.8056 7.38893 11.4931 7.95837 12.0625C8.52782 12.6319 9.21532 12.9167 10.0209 12.9167ZM10.0209 11.25C9.67365 11.25 9.37865 11.1283 9.13587 10.885C8.89254 10.6422 8.77087 10.3472 8.77087 10C8.77087 9.65278 8.89254 9.35778 9.13587 9.115C9.37865 8.87167 9.67365 8.75 10.0209 8.75C10.3681 8.75 10.6634 8.87167 10.9067 9.115C11.1495 9.35778 11.2709 9.65278 11.2709 10C11.2709 10.3472 11.1495 10.6422 10.9067 10.885C10.6634 11.1283 10.3681 11.25 10.0209 11.25ZM9.22921 16.6042H10.75L11.0417 14.4167C11.4862 14.3056 11.8959 14.1389 12.2709 13.9167C12.6459 13.6944 12.9862 13.4236 13.2917 13.1042L15.3542 13.9583L16.1042 12.6458L14.3125 11.2917C14.382 11.0972 14.4342 10.8889 14.4692 10.6667C14.5037 10.4444 14.5209 10.2222 14.5209 10C14.5209 9.77778 14.5037 9.55556 14.4692 9.33333C14.4342 9.11111 14.382 8.90278 14.3125 8.70833L16.1042 7.35417L15.3542 6.04167L13.2917 6.91667C12.9862 6.58333 12.6459 6.30556 12.2709 6.08333C11.8959 5.86111 11.4862 5.69444 11.0417 5.58333L10.7709 3.39583H9.22921L8.95837 5.58333C8.51393 5.69444 8.10421 5.86111 7.72921 6.08333C7.35421 6.30556 7.00698 6.57639 6.68754 6.89583L4.64587 6.04167L3.89587 7.35417L5.66671 8.6875C5.59726 8.89583 5.54532 9.10778 5.51087 9.32333C5.47587 9.53833 5.45837 9.76389 5.45837 10C5.45837 10.2222 5.47587 10.4408 5.51087 10.6558C5.54532 10.8714 5.59726 11.0903 5.66671 11.3125L3.89587 12.6458L4.64587 13.9583L6.68754 13.1042C7.00698 13.4236 7.35421 13.6944 7.72921 13.9167C8.10421 14.1389 8.51393 14.3056 8.95837 14.4167L9.22921 16.6042Z" fill="#604D9E"/>
</g>
</svg>
