<svg width="20" height="20" viewBox="0 0 20 20" fill="none" xmlns="http://www.w3.org/2000/svg">
<mask id="mask0_2302_381" style="mask-type:alpha" maskUnits="userSpaceOnUse" x="0" y="0" width="20" height="20">
<rect width="20" height="20" fill="#D9D9D9"/>
</mask>
<g mask="url(#mask0_2302_381)">
<path d="M3.39582 17.6876C2.86804 17.6876 2.41998 17.5034 2.05165 17.1351C1.68387 16.7673 1.49998 16.3195 1.49998 15.7917V6.75008C1.49998 6.2223 1.68387 5.77425 2.05165 5.40591C2.41998 5.03814 2.86804 4.85425 3.39582 4.85425H6.52082V3.25008C6.52082 2.73619 6.70498 2.29175 7.07332 1.91675C7.44109 1.54175 7.88887 1.35425 8.41665 1.35425H11.5833C12.1111 1.35425 12.5591 1.54175 12.9275 1.91675C13.2953 2.29175 13.4791 2.73619 13.4791 3.25008V4.85425H16.6041C17.1319 4.85425 17.58 5.03814 17.9483 5.40591C18.3161 5.77425 18.5 6.2223 18.5 6.75008V15.7917C18.5 16.3195 18.3161 16.7673 17.9483 17.1351C17.58 17.5034 17.1319 17.6876 16.6041 17.6876H3.39582ZM3.39582 15.7917H16.6041V6.75008H3.39582V15.7917ZM8.41665 4.85425H11.5833V3.25008H8.41665V4.85425Z" fill="#604D9E"/>
</g>
</svg>
