<svg width="117" height="117" viewBox="0 0 117 117" fill="none" xmlns="http://www.w3.org/2000/svg">
<g id="Group 24">
<circle id="Ellipse 1" cx="58.5001" cy="58.5001" r="49.14" fill="#604D9E"/>
<g id="account_circle">
<mask id="mask0_1506_1844" style="mask-type:alpha" maskUnits="userSpaceOnUse" x="0" y="0" width="117" height="117">
<rect id="Bounding box" width="117" height="117" fill="#D9D9D9"/>
</mask>
<g mask="url(#mask0_1506_1844)">
<path id="account_circle_2" d="M30.225 85.1906C34.3687 82.2656 38.7562 79.9305 43.3875 78.1852C48.0187 76.4368 53.0563 75.5625 58.5 75.5625C63.9437 75.5625 68.9813 76.4368 73.6125 78.1852C78.2438 79.9305 82.6312 82.2656 86.775 85.1906C90.025 81.8594 92.625 77.9383 94.575 73.4272C96.525 68.9195 97.5 63.9437 97.5 58.5C97.5 47.6937 93.7024 38.4914 86.1071 30.8929C78.5086 23.2976 69.3063 19.5 58.5 19.5C47.6937 19.5 38.493 23.2976 30.8977 30.8929C23.2992 38.4914 19.5 47.6937 19.5 58.5C19.5 63.9437 20.475 68.9195 22.425 73.4272C24.375 77.9383 26.975 81.8594 30.225 85.1906ZM58.5 60.9375C54.3563 60.9375 50.8836 59.5351 48.0821 56.7304C45.2774 53.9289 43.875 50.4562 43.875 46.3125C43.875 42.1688 45.2774 38.6945 48.0821 35.8897C50.8836 33.0882 54.3563 31.6875 58.5 31.6875C62.6437 31.6875 66.1164 33.0882 68.9179 35.8897C71.7226 38.6945 73.125 42.1688 73.125 46.3125C73.125 50.4562 71.7226 53.9289 68.9179 56.7304C66.1164 59.5351 62.6437 60.9375 58.5 60.9375ZM58.5 102.375C52.4062 102.375 46.6781 101.237 41.3156 98.9625C35.9531 96.6875 31.3024 93.5805 27.3634 89.6415C23.4211 85.6992 20.3125 81.0469 18.0375 75.6844C15.7625 70.3219 14.625 64.5938 14.625 58.5C14.625 52.4062 15.7625 46.6781 18.0375 41.3156C20.3125 35.9531 23.4211 31.3008 27.3634 27.3585C31.3024 23.4195 35.9531 20.3125 41.3156 18.0375C46.6781 15.7625 52.4062 14.625 58.5 14.625C64.5938 14.625 70.3219 15.7625 75.6844 18.0375C81.0469 20.3125 85.6992 23.4195 89.6415 27.3585C93.5805 31.3008 96.6875 35.9531 98.9625 41.3156C101.237 46.6781 102.375 52.4062 102.375 58.5C102.375 64.5938 101.237 70.3219 98.9625 75.6844C96.6875 81.0469 93.5805 85.6992 89.6415 89.6415C85.6992 93.5805 81.0469 96.6875 75.6844 98.9625C70.3219 101.237 64.5938 102.375 58.5 102.375Z" fill="#FAFAFA"/>
</g>
</g>
</g>
</svg>
